<svg xmlns="http://www.w3.org/2000/svg" xmlns:xlink="http://www.w3.org/1999/xlink" width="512" height="512" viewBox="0 0 512 512">
  <defs>
    <radialGradient id="radial-gradient" cx="0.5" cy="0.5" r="0.5" gradientUnits="objectBoundingBox">
      <stop offset="0" stop-color="#06ccff"/>
      <stop offset="1" stop-color="#06ccff" stop-opacity="0"/>
    </radialGradient>
    <filter id="CW" x="23.491" y="104.96" width="373.296" height="335.939" filterUnits="userSpaceOnUse">
      <feOffset dy="17" input="SourceAlpha"/>
      <feGaussianBlur stdDeviation="12" result="blur"/>
      <feFlood flood-opacity="0.231"/>
      <feComposite operator="in" in2="blur"/>
      <feComposite in="SourceGraphic"/>
    </filter>
    <clipPath id="clip-Logo_4">
      <rect width="512" height="512"/>
    </clipPath>
  </defs>
  <g id="Logo_4" data-name="Logo – 4" clip-path="url(#clip-Logo_4)">
    <path id="b3" d="M34.148-50.1l236.4-40.317c18.092,0,31.682,9.88,31.682,27.972V162.339c0,18.092-13.59,34.526-31.682,34.526H32.7C14.612,196.865-.188,182.79-.188,164.7V-12.694C-.188-30.786,16.057-50.1,34.148-50.1Z" transform="translate(209.766 227.776)" fill="rgba(223,223,223,0.6)"/>
    <path id="b2" d="M41.947-40.942l290.1-49.474c22.2,0,38.878,12.124,38.878,34.325V219.746c0,22.2-16.677,42.368-38.878,42.368H40.174c-22.2,0-40.362-17.272-40.362-39.473V4.958C-.188-17.242,19.747-40.942,41.947-40.942Z" transform="translate(101.281 181.151)" fill="rgba(238,238,238,0.85)"/>
    <path id="b1" d="M48.391-33.376l334.461-57.04c25.6,0,44.823,13.978,44.823,39.574V267.179c0,25.6-19.227,48.847-44.823,48.847H46.346c-25.6,0-46.535-19.914-46.535-45.51V19.544C-.188-6.052,22.8-33.376,48.391-33.376Z" transform="translate(0.188 143.195)" fill="rgba(251,254,255,0.95)"/>
    <ellipse id="ligntroom" cx="166" cy="171.5" rx="166" ry="171.5" transform="translate(35 95)" opacity="0.5" fill="url(#radial-gradient)"/>
    <g transform="matrix(1, 0, 0, 1, 0, 0)" filter="url(#CW)">
      <path id="CW-2" data-name="CW" d="M131.721,232.025q-7.276,3.126-15.594,4.856t-17.65,2.058q-18.011.633-30.687-6.516-6.235-3.516-10.9-8.644T49.1,211.9q-3.073-6.662-4.484-14.412t-1.161-16.607q.266-9.457,2.3-17.978t5.854-16.147q3.821-7.635,9.113-13.75t12.079-10.738q6.858-4.672,14.752-7.457t16.854-3.694q14.535-1.475,28.3.946l-.282,34.174q-4.791-2.7-11.4-3.862-6.556-1.151-13.243-.58-6.858.586-12.27,3.169t-9.4,7.178q-3.974,4.575-6.03,10.514t-2.206,13.275q-.15,7.336,1.691,13.019t5.676,9.727q7.76,8.182,21.174,7.484,12.557-.653,25.582-8.406Zm165.325-2.5L253.6,231.1l-19.4-75.263q-.426-1.567-.93-5.493t-1.085-10.2l-.356.029q-1.179,11.277-2.362,16.015l-18.276,76.455-42.333,1.536-27.944-124.72,38.948-3.912,10.466,73.92q.265,1.429.817,8.368l.556,7.51.519-.029q.161-2.375,1-8.1t1.6-8.573l18.535-76.457L254.982,98l18.575,76.776,1.405,7.929,1.125,7.793.376-.021.2-3.329.9-13.189,9.665-79.2,40.4-4.057Z" transform="translate(23.49 104.96)" fill="#202020"/>
    </g>
    <path id="title" d="M19.826,27.619,137.41,10.467a15.323,15.323,0,0,1,6.059.3,14.08,14.08,0,0,1,5.121,2.5,13.568,13.568,0,0,1,3.646,4.314,14.051,14.051,0,0,1,1.619,5.724,15.419,15.419,0,0,1-.836,6.1,16.859,16.859,0,0,1-3.038,5.312,17.389,17.389,0,0,1-4.759,3.947,16.684,16.684,0,0,1-5.988,2.011L20.18,56.52a12.78,12.78,0,0,1-5.457-.421,11.785,11.785,0,0,1-4.452-2.523,12.209,12.209,0,0,1-3-4.2,13.846,13.846,0,0,1-1.123-5.458,15.941,15.941,0,0,1,1.043-5.735A17.2,17.2,0,0,1,10.1,33.217a16.757,16.757,0,0,1,4.353-3.693A14.9,14.9,0,0,1,19.826,27.619Z" transform="translate(51.283 120.316)" fill="rgba(70,70,70,0.73)" opacity="0.35"/>
  </g>
</svg>
